<?xml version="1.0" encoding="utf-8"?>
<!-- Generator: Adobe Illustrator 22.0.1, SVG Export Plug-In . SVG Version: 6.00 Build 0)  -->
<svg version="1.1" id="Capa_1" xmlns="http://www.w3.org/2000/svg" xmlns:xlink="http://www.w3.org/1999/xlink" x="0px" y="0px"
	 viewBox="0 0 161.4 195.9" style="enable-background:new 0 0 161.4 195.9;" xml:space="preserve">
<style type="text/css">
	.st0{fill:#5B5959;stroke:#3C2415;stroke-width:5.1345;stroke-miterlimit:10;}
	.st1{fill:none;stroke:#FFFFFF;stroke-width:1.2836;stroke-miterlimit:10;}
	.st2{fill:none;stroke:#5B5959;stroke-width:7.7017;stroke-miterlimit:10;}
	.st3{fill:#683503;}
	.st4{fill:#1D1D1E;}
	.st5{display:none;}
	.st6{display:inline;}
</style>
<g id="Capa_3">
	<path class="st0" d="M2.6,16.4v66.1c0,0-0.4,64.2,78.3,110.4c83.7-47.4,77.9-111.2,77.9-111.2V15.6c0,0-17.6,10.3-35.5,10.3
		s-18-11.8-18-11.8H56.1c0,0-3.1,12.2-17.2,11.8C18.6,25.2,2.6,16.4,2.6,16.4z"/>
	<path class="st1" d="M17.5,0"/>
	<path class="st2" d="M5.9,17.9"/>
	<path class="st3" d="M81.5,17.1l21.5-0.3c0,0,2.1,11.1,18.2,11.9c18.8,0.5,34.9-8.6,34.9-8.6l0.4,66.3c0,0,0.4,29-26.2,62.9
		c-24.3,28-49.2,40.5-49.2,40.5L81.5,17.1z"/>
</g>
<g id="Capa_1_1_">
	<g>
		<path class="st4" d="M130.9,119c0,7-1.4,12.9-4,17.8c-2,3.9-4.9,6.9-8.7,9.2c-4.2,2.6-8.4,3.9-12.6,3.9H75.1
			c-2.9,0.8-6.1,1.1-9.4,1.1c-2.7,0-4.8,0-7.1-0.2h-1.3c-3.2,0-6.5-0.9-9.8-2.8c-2.9-1.6-5.2-3.8-6.8-6.5c-1.8-3-2.8-6.6-3-10.8
			h14.4c0.2,0.8,0.4,1.5,0.7,2.2c1.7,4.1,4.7,6.2,9.1,6.2h5.5c3.2-0.7,5.4-2.7,5.4-7.3V71h15.9v59.9c0,0.9,0,1.7-0.1,2.5l4.3,0h7
			c5.6,0,9.5-2.9,11.7-8.7c0.8-2,1.2-4.3,1.2-6.9c0-6.2-1.2-10.7-3.5-13.5c-2.1-2.6-5.2-3.9-9.3-3.9l-7.1-0.1h-3.3V84.5H93v0.1h7
			c5.2,0,8.6-2.6,10.4-7.6c0.7-1.9,1-4.2,1-7c0-4.6-1.2-8.1-3.4-10.4c-2.1-2.2-4.7-3.3-8-3.3l-6.2-0.1H66L42.9,56V39.5l28.8-0.1H100
			c6.6,0,12.5,1.7,17.8,5.2c4.5,2.9,7.8,7.4,9.7,13.6c1.1,3.3,1.6,7.2,1.6,11.7c0,7.4-2,13.3-5.9,17.8c-1.6,1.9-3.6,3.3-5.8,4.3
			c3.7,1.5,6.8,4.2,9.4,8.4c1.7,2.8,3,6.4,3.8,10.9C131,113.6,131.3,116.2,130.9,119z"/>
		<polygon class="st4" points="66.4,100.5 50.1,100.7 50.1,84.8 66.1,84.5 71.5,84.5 71.5,100.5 		"/>
	</g>
</g>
<g id="Capa_2_1_" class="st5">
	<g id="zrpGia.tif" class="st6">
		
			<image style="overflow:visible;enable-background:new    ;" width="627" height="627" id="Layer_0_1_" xlink:href="349160522EA2174C.png"  transform="matrix(0.9984 0 0 0.9984 -233.9589 -212.8381)">
		</image>
	</g>
</g>
</svg>
